<?xml version="1.0" encoding="UTF-8"?>
<svg xmlns="http://www.w3.org/2000/svg" width="96" height="40" viewBox="0 0 96 40" aria-label="Allies Sheet" shape-rendering="crispEdges">
  <g transform="translate(0 0)"><rect x="5" y="37" width="12" height="2" fill="#050813" opacity="0.18" /><rect x="9" y="2" width="6" height="2" fill="#5d6875" opacity="1" /><rect x="8" y="4" width="8" height="2" fill="#8592a0" opacity="1" /><rect x="9" y="6" width="6" height="5" fill="#e2c5b4" opacity="1" /><rect x="8" y="8" width="2" height="1" fill="#5d6875" opacity="1" /><rect x="14" y="8" width="2" height="1" fill="#5d6875" opacity="1" /><rect x="8" y="11" width="2" height="8" fill="#d0d4d8" opacity="1" /><rect x="15" y="11" width="2" height="8" fill="#d0d4d8" opacity="1" /><rect x="9" y="11" width="6" height="8" fill="#f0f1ea" opacity="1" /><rect x="8" y="19" width="8" height="7" fill="#95a9b8" opacity="1" /><rect x="10" y="19" width="4" height="5" fill="#d3c48e" opacity="1" /><rect x="8" y="26" width="4" height="5" fill="#74889a" opacity="1" /><rect x="12" y="26" width="4" height="5" fill="#74889a" opacity="1" /><rect x="9" y="30" width="2" height="7" fill="#4f5f6f" opacity="1" /><rect x="13" y="30" width="2" height="7" fill="#4f5f6f" opacity="1" /><rect x="10" y="14" width="4" height="1" fill="#88a7be" opacity="1" /><rect x="7" y="18" width="10" height="2" fill="#d0d4d8" opacity="0.45" /><rect x="16" y="16" width="3" height="4" fill="#bcc9d6" opacity="1" /></g><g transform="translate(24 0)"><rect x="5" y="37" width="12" height="2" fill="#050813" opacity="0.18" /><rect x="9" y="3" width="6" height="2" fill="#5d6875" opacity="1" /><rect x="8" y="5" width="8" height="2" fill="#8592a0" opacity="1" /><rect x="9" y="7" width="6" height="5" fill="#e2c5b4" opacity="1" /><rect x="8" y="9" width="2" height="1" fill="#5d6875" opacity="1" /><rect x="14" y="9" width="2" height="1" fill="#5d6875" opacity="1" /><rect x="7" y="11" width="2" height="8" fill="#d0d4d8" opacity="1" /><rect x="16" y="11" width="2" height="8" fill="#d0d4d8" opacity="1" /><rect x="9" y="11" width="6" height="8" fill="#f0f1ea" opacity="1" /><rect x="8" y="19" width="8" height="7" fill="#95a9b8" opacity="1" /><rect x="10" y="19" width="4" height="5" fill="#d3c48e" opacity="1" /><rect x="8" y="27" width="4" height="5" fill="#74889a" opacity="1" /><rect x="12" y="25" width="4" height="5" fill="#74889a" opacity="1" /><rect x="9" y="30" width="2" height="7" fill="#4f5f6f" opacity="1" /><rect x="13" y="30" width="2" height="7" fill="#4f5f6f" opacity="1" /><rect x="10" y="14" width="4" height="1" fill="#88a7be" opacity="1" /><rect x="7" y="18" width="10" height="2" fill="#d0d4d8" opacity="0.45" /><rect x="17" y="16" width="3" height="4" fill="#bcc9d6" opacity="1" /></g><g transform="translate(48 0)"><rect x="5" y="37" width="12" height="2" fill="#050813" opacity="0.18" /><rect x="9" y="2" width="6" height="2" fill="#6d3d26" opacity="1" /><rect x="8" y="4" width="8" height="2" fill="#8c5434" opacity="1" /><rect x="9" y="6" width="6" height="5" fill="#c08a61" opacity="1" /><rect x="8" y="8" width="2" height="1" fill="#6d3d26" opacity="1" /><rect x="14" y="8" width="2" height="1" fill="#6d3d26" opacity="1" /><rect x="9" y="11" width="2" height="8" fill="#604437" opacity="1" /><rect x="14" y="11" width="2" height="8" fill="#604437" opacity="1" /><rect x="9" y="11" width="6" height="8" fill="#885f48" opacity="1" /><rect x="8" y="19" width="8" height="7" fill="#bf7e4f" opacity="1" /><rect x="10" y="19" width="4" height="5" fill="#da9d52" opacity="1" /><rect x="8" y="26" width="4" height="5" fill="#935b39" opacity="1" /><rect x="12" y="26" width="4" height="5" fill="#935b39" opacity="1" /><rect x="8" y="30" width="2" height="7" fill="#3b281c" opacity="1" /><rect x="14" y="30" width="2" height="7" fill="#3b281c" opacity="1" /><rect x="10" y="14" width="4" height="1" fill="#df6046" opacity="1" /><rect x="7" y="18" width="10" height="2" fill="#604437" opacity="0.45" /><rect x="15" y="16" width="3" height="4" fill="#a9a190" opacity="1" /></g><g transform="translate(72 0)"><circle cx="12" cy="20" r="12" fill="#efdba1" opacity="0.3" /><circle cx="12" cy="20" r="14" fill="#b8f1ff" opacity="0.08" /><circle cx="12" cy="20" r="10" fill="#b8f1ff" opacity="0.16" /><rect x="5" y="37" width="12" height="2" fill="#050813" opacity="0.18" /><rect x="9" y="2" width="6" height="2" fill="#d3cfd8" opacity="1" /><rect x="8" y="4" width="8" height="2" fill="#f0e6ee" opacity="1" /><rect x="9" y="6" width="6" height="5" fill="#f4e7e4" opacity="1" /><rect x="8" y="8" width="2" height="1" fill="#d3cfd8" opacity="1" /><rect x="14" y="8" width="2" height="1" fill="#d3cfd8" opacity="1" /><rect x="8" y="11" width="2" height="8" fill="#d6d2de" opacity="1" /><rect x="14" y="11" width="2" height="8" fill="#d6d2de" opacity="1" /><rect x="9" y="11" width="6" height="8" fill="#f7f0f8" opacity="1" /><rect x="8" y="19" width="8" height="7" fill="#dfe0ef" opacity="1" /><rect x="10" y="19" width="4" height="5" fill="#f2cae6" opacity="1" /><rect x="8" y="26" width="4" height="5" fill="#c5c5d7" opacity="1" /><rect x="12" y="26" width="4" height="5" fill="#c5c5d7" opacity="1" /><rect x="9" y="30" width="2" height="7" fill="#d0d4e3" opacity="1" /><rect x="13" y="30" width="2" height="7" fill="#d0d4e3" opacity="1" /><rect x="10" y="14" width="4" height="1" fill="#9ddcf2" opacity="1" /><rect x="7" y="18" width="10" height="2" fill="#d6d2de" opacity="0.45" /></g>
</svg>
