<?xml version="1.0" encoding="UTF-8"?>
<svg xmlns="http://www.w3.org/2000/svg" width="72" height="40" viewBox="0 0 72 40" aria-label="Citizens Sheet" shape-rendering="crispEdges">
  <g transform="translate(0 0)"><rect x="5" y="37" width="12" height="2" fill="#050813" opacity="0.18" /><rect x="9" y="2" width="6" height="2" fill="#5f3b24" opacity="1" /><rect x="8" y="4" width="8" height="2" fill="#8a5a39" opacity="1" /><rect x="9" y="6" width="6" height="5" fill="#cda180" opacity="1" /><rect x="8" y="8" width="2" height="1" fill="#5f3b24" opacity="1" /><rect x="14" y="8" width="2" height="1" fill="#5f3b24" opacity="1" /><rect x="7" y="11" width="2" height="8" fill="#3e5b62" opacity="1" /><rect x="16" y="11" width="2" height="8" fill="#3e5b62" opacity="1" /><rect x="9" y="11" width="6" height="8" fill="#50747d" opacity="1" /><rect x="8" y="19" width="8" height="7" fill="#7b8e6f" opacity="1" /><rect x="10" y="19" width="4" height="5" fill="#d1c17a" opacity="1" /><rect x="8" y="26" width="4" height="5" fill="#586650" opacity="1" /><rect x="12" y="26" width="4" height="5" fill="#586650" opacity="1" /><rect x="9" y="30" width="2" height="7" fill="#2b3037" opacity="1" /><rect x="13" y="30" width="2" height="7" fill="#2b3037" opacity="1" /><rect x="10" y="14" width="4" height="1" fill="#df7d5b" opacity="1" /><rect x="7" y="18" width="10" height="2" fill="#3e5b62" opacity="0.45" /></g><g transform="translate(24 0)"><rect x="5" y="37" width="12" height="2" fill="#050813" opacity="0.18" /><rect x="9" y="3" width="6" height="2" fill="#463e45" opacity="1" /><rect x="8" y="5" width="8" height="2" fill="#716578" opacity="1" /><rect x="9" y="7" width="6" height="5" fill="#dfb7a1" opacity="1" /><rect x="8" y="9" width="2" height="1" fill="#463e45" opacity="1" /><rect x="14" y="9" width="2" height="1" fill="#463e45" opacity="1" /><rect x="8" y="11" width="2" height="8" fill="#7b6061" opacity="1" /><rect x="14" y="11" width="2" height="8" fill="#7b6061" opacity="1" /><rect x="9" y="11" width="6" height="8" fill="#b58574" opacity="1" /><rect x="8" y="19" width="8" height="7" fill="#d2b28c" opacity="1" /><rect x="10" y="19" width="4" height="5" fill="#f0daa0" opacity="1" /><rect x="8" y="27" width="4" height="5" fill="#ac8d68" opacity="1" /><rect x="12" y="25" width="4" height="5" fill="#ac8d68" opacity="1" /><rect x="9" y="30" width="2" height="7" fill="#413433" opacity="1" /><rect x="13" y="30" width="2" height="7" fill="#413433" opacity="1" /><rect x="10" y="14" width="4" height="1" fill="#80afb6" opacity="1" /><rect x="7" y="18" width="10" height="2" fill="#7b6061" opacity="0.45" /></g><g transform="translate(48 0)"><rect x="5" y="37" width="12" height="2" fill="#050813" opacity="0.18" /><rect x="9" y="2" width="6" height="2" fill="#7a6f64" opacity="1" /><rect x="8" y="4" width="8" height="2" fill="#bcae9f" opacity="1" /><rect x="9" y="6" width="6" height="5" fill="#d8b299" opacity="1" /><rect x="8" y="8" width="2" height="1" fill="#7a6f64" opacity="1" /><rect x="14" y="8" width="2" height="1" fill="#7a6f64" opacity="1" /><rect x="9" y="11" width="2" height="8" fill="#445664" opacity="1" /><rect x="13" y="11" width="2" height="8" fill="#445664" opacity="1" /><rect x="9" y="11" width="6" height="8" fill="#5e7687" opacity="1" /><rect x="8" y="19" width="8" height="7" fill="#95a382" opacity="1" /><rect x="10" y="19" width="4" height="5" fill="#ead28c" opacity="1" /><rect x="8" y="26" width="4" height="5" fill="#6d7a62" opacity="1" /><rect x="12" y="26" width="4" height="5" fill="#6d7a62" opacity="1" /><rect x="9" y="30" width="2" height="7" fill="#26323b" opacity="1" /><rect x="13" y="30" width="2" height="7" fill="#26323b" opacity="1" /><rect x="10" y="14" width="4" height="1" fill="#a8d1c5" opacity="1" /><rect x="7" y="18" width="10" height="2" fill="#445664" opacity="0.45" /><rect x="14" y="16" width="3" height="4" fill="#c7c69b" opacity="1" /></g>
</svg>
