<?xml version="1.0" encoding="UTF-8"?>
<svg xmlns="http://www.w3.org/2000/svg" width="320" height="40" viewBox="0 0 320 40" aria-label="Enemies Sheet" shape-rendering="crispEdges">
  <g transform="translate(0 0)"><rect x="5" y="18" width="10" height="2" fill="#050813" opacity="0.14" /><rect x="6" y="8" width="8" height="4" fill="#d3d9df" opacity="1" /><rect x="8" y="6" width="4" height="4" fill="#edf1f4" opacity="1" /><rect x="14" y="8" width="2" height="2" fill="#f0a65d" opacity="1" /><rect x="4" y="6" width="4" height="2" fill="#d8e3ea" opacity="1" /><rect x="12" y="10" width="4" height="2" fill="#c6d4dd" opacity="1" /><rect x="9" y="12" width="2" height="4" fill="#7d8790" opacity="1" /><rect x="11" y="12" width="2" height="4" fill="#7d8790" opacity="1" /><rect x="10" y="9" width="1" height="1" fill="#1f2830" opacity="1" /></g><g transform="translate(40 0)"><rect x="5" y="18" width="10" height="2" fill="#050813" opacity="0.14" /><rect x="6" y="8" width="8" height="4" fill="#d3d9df" opacity="1" /><rect x="8" y="6" width="4" height="4" fill="#edf1f4" opacity="1" /><rect x="14" y="8" width="2" height="2" fill="#f0a65d" opacity="1" /><rect x="4" y="10" width="4" height="2" fill="#d8e3ea" opacity="1" /><rect x="12" y="6" width="4" height="2" fill="#c6d4dd" opacity="1" /><rect x="9" y="12" width="2" height="4" fill="#7d8790" opacity="1" /><rect x="11" y="12" width="2" height="4" fill="#7d8790" opacity="1" /><rect x="10" y="9" width="1" height="1" fill="#1f2830" opacity="1" /></g><g transform="translate(80 0)"><rect x="5" y="37" width="12" height="2" fill="#050813" opacity="0.18" /><rect x="9" y="2" width="6" height="2" fill="#20232d" opacity="1" /><rect x="8" y="4" width="8" height="2" fill="#3a4654" opacity="1" /><rect x="9" y="6" width="6" height="5" fill="#7c8d91" opacity="1" /><rect x="8" y="8" width="2" height="1" fill="#20232d" opacity="1" /><rect x="14" y="8" width="2" height="1" fill="#20232d" opacity="1" /><rect x="9" y="11" width="2" height="8" fill="#35454c" opacity="1" /><rect x="13" y="11" width="2" height="8" fill="#35454c" opacity="1" /><rect x="9" y="11" width="6" height="8" fill="#4f6a74" opacity="1" /><rect x="8" y="19" width="8" height="7" fill="#63808a" opacity="1" /><rect x="10" y="19" width="4" height="5" fill="#91c4d1" opacity="1" /><rect x="8" y="26" width="4" height="5" fill="#476169" opacity="1" /><rect x="12" y="26" width="4" height="5" fill="#476169" opacity="1" /><rect x="8" y="30" width="2" height="7" fill="#243038" opacity="1" /><rect x="14" y="30" width="2" height="7" fill="#243038" opacity="1" /><rect x="10" y="14" width="4" height="1" fill="#c84f4d" opacity="1" /><rect x="7" y="18" width="10" height="2" fill="#35454c" opacity="0.45" /><rect x="14" y="16" width="3" height="4" fill="#8eb2bd" opacity="1" /></g><g transform="translate(120 0)"><rect x="5" y="37" width="12" height="2" fill="#050813" opacity="0.18" /><rect x="9" y="2" width="6" height="2" fill="#20232d" opacity="1" /><rect x="8" y="4" width="8" height="2" fill="#3a4654" opacity="1" /><rect x="9" y="6" width="6" height="5" fill="#7c8d91" opacity="1" /><rect x="8" y="8" width="2" height="1" fill="#20232d" opacity="1" /><rect x="14" y="8" width="2" height="1" fill="#20232d" opacity="1" /><rect x="7" y="11" width="2" height="8" fill="#35454c" opacity="1" /><rect x="15" y="11" width="2" height="8" fill="#35454c" opacity="1" /><rect x="9" y="11" width="6" height="8" fill="#4f6a74" opacity="1" /><rect x="8" y="19" width="8" height="7" fill="#63808a" opacity="1" /><rect x="10" y="19" width="4" height="5" fill="#91c4d1" opacity="1" /><rect x="8" y="26" width="4" height="5" fill="#476169" opacity="1" /><rect x="12" y="26" width="4" height="5" fill="#476169" opacity="1" /><rect x="10" y="30" width="2" height="7" fill="#243038" opacity="1" /><rect x="12" y="30" width="2" height="7" fill="#243038" opacity="1" /><rect x="10" y="14" width="4" height="1" fill="#c84f4d" opacity="1" /><rect x="7" y="18" width="10" height="2" fill="#35454c" opacity="0.45" /><rect x="16" y="16" width="3" height="4" fill="#8eb2bd" opacity="1" /></g><g transform="translate(160 0)"><circle cx="12" cy="20" r="12" fill="#efdba1" opacity="0.18" /><rect x="5" y="37" width="12" height="2" fill="#050813" opacity="0.18" /><rect x="10" y="2" width="6" height="2" fill="#20232d" opacity="1" /><rect x="9" y="4" width="8" height="2" fill="#3a4654" opacity="1" /><rect x="10" y="6" width="6" height="5" fill="#7c8d91" opacity="1" /><rect x="9" y="8" width="2" height="1" fill="#20232d" opacity="1" /><rect x="15" y="8" width="2" height="1" fill="#20232d" opacity="1" /><rect x="9" y="11" width="2" height="8" fill="#35454c" opacity="1" /><rect x="18" y="11" width="2" height="8" fill="#35454c" opacity="1" /><rect x="10" y="11" width="6" height="8" fill="#4f6a74" opacity="1" /><rect x="9" y="19" width="8" height="7" fill="#63808a" opacity="1" /><rect x="11" y="19" width="4" height="5" fill="#91c4d1" opacity="1" /><rect x="9" y="26" width="4" height="5" fill="#476169" opacity="1" /><rect x="13" y="26" width="4" height="5" fill="#476169" opacity="1" /><rect x="10" y="30" width="2" height="7" fill="#243038" opacity="1" /><rect x="14" y="30" width="2" height="7" fill="#243038" opacity="1" /><rect x="11" y="14" width="4" height="1" fill="#c84f4d" opacity="1" /><rect x="8" y="18" width="10" height="2" fill="#35454c" opacity="0.45" /><rect x="19" y="16" width="3" height="4" fill="#8eb2bd" opacity="1" /></g><g transform="translate(200 0)"><circle cx="20" cy="22" r="18" fill="#6f5031" opacity="0.12" /><rect x="12" y="6" width="16" height="7" fill="#6a4a2a" opacity="1" /><rect x="10" y="13" width="20" height="8" fill="#8a6338" opacity="1" /><rect x="8" y="20" width="24" height="9" fill="#5f4126" opacity="1" /><rect x="12" y="29" width="16" height="5" fill="#3a2b1c" opacity="1" /><rect x="14" y="34" width="4" height="5" fill="#2f2318" opacity="1" /><rect x="22" y="34" width="4" height="5" fill="#2f2318" opacity="1" /><rect x="6" y="19" width="4" height="12" fill="#8a6338" opacity="1" /><rect x="30" y="19" width="4" height="12" fill="#8a6338" opacity="1" /><rect x="14" y="15" width="12" height="3" fill="#d29e58" opacity="1" /><rect x="13" y="12" width="3" height="3" fill="#f6d296" opacity="0.42" /><rect x="24" y="12" width="3" height="3" fill="#f6d296" opacity="0.42" /><rect x="16" y="24" width="8" height="2" fill="#d29e58" opacity="1" /><rect x="18" y="10" width="4" height="2" fill="#ad7d43" opacity="1" /><rect x="12" y="18" width="16" height="1" fill="#f2c170" opacity="0.42" /></g><g transform="translate(240 0)"><circle cx="20" cy="22" r="18" fill="#6f5031" opacity="0.12" /><rect x="13" y="6" width="16" height="7" fill="#6a4a2a" opacity="1" /><rect x="11" y="13" width="20" height="8" fill="#8a6338" opacity="1" /><rect x="9" y="20" width="24" height="9" fill="#5f4126" opacity="1" /><rect x="13" y="29" width="16" height="5" fill="#3a2b1c" opacity="1" /><rect x="15" y="34" width="4" height="5" fill="#2f2318" opacity="1" /><rect x="23" y="34" width="4" height="5" fill="#2f2318" opacity="1" /><rect x="9" y="19" width="4" height="12" fill="#8a6338" opacity="1" /><rect x="29" y="19" width="4" height="12" fill="#8a6338" opacity="1" /><rect x="15" y="15" width="12" height="4" fill="#d29e58" opacity="1" /><rect x="14" y="12" width="3" height="3" fill="#f6d296" opacity="0.7" /><rect x="25" y="12" width="3" height="3" fill="#f6d296" opacity="0.7" /><rect x="17" y="24" width="8" height="2" fill="#d29e58" opacity="1" /><rect x="19" y="10" width="4" height="2" fill="#ad7d43" opacity="1" /><rect x="13" y="18" width="16" height="1" fill="#f2c170" opacity="0.42" /></g><g transform="translate(280 0)"><circle cx="20" cy="22" r="18" fill="#6f5031" opacity="0.12" /><rect x="11" y="6" width="16" height="7" fill="#6a4a2a" opacity="1" /><rect x="9" y="13" width="20" height="8" fill="#8a6338" opacity="1" /><rect x="7" y="20" width="24" height="9" fill="#5f4126" opacity="1" /><rect x="11" y="29" width="16" height="5" fill="#3a2b1c" opacity="1" /><rect x="13" y="34" width="4" height="5" fill="#2f2318" opacity="1" /><rect x="21" y="34" width="4" height="5" fill="#2f2318" opacity="1" /><rect x="4" y="19" width="4" height="12" fill="#8a6338" opacity="1" /><rect x="30" y="19" width="4" height="12" fill="#8a6338" opacity="1" /><rect x="13" y="15" width="12" height="3" fill="#d29e58" opacity="1" /><rect x="12" y="12" width="3" height="3" fill="#f6d296" opacity="0.3" /><rect x="23" y="12" width="3" height="3" fill="#f6d296" opacity="0.3" /><rect x="15" y="24" width="8" height="2" fill="#d29e58" opacity="1" /><rect x="17" y="10" width="4" height="2" fill="#ad7d43" opacity="1" /><rect x="11" y="18" width="16" height="1" fill="#f2c170" opacity="0.42" /></g>
</svg>
