<?xml version="1.0" encoding="UTF-8"?>
<svg xmlns="http://www.w3.org/2000/svg" width="96" height="16" viewBox="0 0 96 16" aria-label="Harbor Tiles" shape-rendering="crispEdges">
  <g transform="translate(0 0)"><rect x="0" y="0" width="16" height="16" fill="#1c2b37" opacity="1" /><rect x="0" y="11" width="16" height="5" fill="#3e5763" opacity="1" /><rect x="0" y="12" width="16" height="4" fill="#536f7f" opacity="1" /><rect x="0" y="13" width="16" height="3" fill="#7c8f93" opacity="1" /><rect x="2" y="8" width="2" height="3" fill="#916c42" opacity="1" /><rect x="6" y="7" width="2" height="4" fill="#916c42" opacity="1" /><rect x="12" y="8" width="2" height="3" fill="#916c42" opacity="1" /></g><g transform="translate(16 0)"><rect x="0" y="0" width="16" height="16" fill="#273746" opacity="1" /><rect x="0" y="0" width="16" height="3" fill="#435767" opacity="1" /><rect x="0" y="3" width="16" height="13" fill="#314455" opacity="1" /><rect x="1" y="4" width="2" height="12" fill="#8a6238" opacity="1" /><rect x="7" y="4" width="2" height="12" fill="#8a6238" opacity="1" /><rect x="13" y="4" width="2" height="12" fill="#8a6238" opacity="1" /></g><g transform="translate(32 0)"><rect x="0" y="0" width="16" height="16" fill="#132531" opacity="1" /><rect x="0" y="8" width="16" height="8" fill="#234357" opacity="1" /><rect x="1" y="9" width="4" height="1" fill="#7fd1d6" opacity="0.65" /><rect x="8" y="11" width="6" height="1" fill="#96e1df" opacity="0.58" /><rect x="5" y="13" width="5" height="1" fill="#5abfc7" opacity="0.5" /></g><g transform="translate(48 0)"><rect x="0" y="0" width="16" height="16" fill="#2c3946" opacity="1" /><rect x="2" y="2" width="12" height="12" fill="#405161" opacity="1" /><rect x="3" y="3" width="10" height="10" fill="#556878" opacity="1" /><rect x="6" y="0" width="4" height="16" fill="#a17c44" opacity="1" /><rect x="0" y="6" width="16" height="4" fill="#a17c44" opacity="1" /></g><g transform="translate(64 0)"><rect x="0" y="0" width="16" height="16" fill="#243443" opacity="1" /><rect x="3" y="8" width="10" height="6" fill="#65492a" opacity="1" /><rect x="2" y="6" width="12" height="2" fill="#91693e" opacity="1" /><rect x="5" y="3" width="6" height="4" fill="#c28c46" opacity="1" /><rect x="7" y="1" width="2" height="2" fill="#f7d17d" opacity="1" /></g><g transform="translate(80 0)"><rect x="0" y="0" width="16" height="16" fill="#182935" opacity="1" /><rect x="6" y="2" width="4" height="10" fill="#675b50" opacity="1" /><rect x="5" y="12" width="6" height="2" fill="#96724d" opacity="1" /><rect x="4" y="14" width="8" height="2" fill="#715337" opacity="1" /><rect x="7" y="4" width="2" height="3" fill="#ffe291" opacity="0.72" /></g>
</svg>
