<?xml version="1.0" encoding="UTF-8"?>
<svg xmlns="http://www.w3.org/2000/svg" width="192" height="40" viewBox="0 0 192 40" aria-label="Hero Sheet" shape-rendering="crispEdges">
  <g transform="translate(0 0)"><rect x="5" y="37" width="12" height="2" fill="#050813" opacity="0.18" /><rect x="9" y="2" width="6" height="2" fill="#15212d" opacity="1" /><rect x="8" y="4" width="8" height="2" fill="#20354a" opacity="1" /><rect x="9" y="6" width="6" height="5" fill="#d9b596" opacity="1" /><rect x="8" y="8" width="2" height="1" fill="#15212d" opacity="1" /><rect x="14" y="8" width="2" height="1" fill="#15212d" opacity="1" /><rect x="8" y="11" width="2" height="8" fill="#18344a" opacity="1" /><rect x="14" y="11" width="2" height="8" fill="#18344a" opacity="1" /><rect x="9" y="11" width="6" height="8" fill="#274c69" opacity="1" /><rect x="8" y="19" width="8" height="7" fill="#36708b" opacity="1" /><rect x="10" y="19" width="4" height="5" fill="#cbb97d" opacity="1" /><rect x="8" y="26" width="4" height="5" fill="#224d63" opacity="1" /><rect x="12" y="26" width="4" height="5" fill="#224d63" opacity="1" /><rect x="9" y="30" width="2" height="7" fill="#13202b" opacity="1" /><rect x="13" y="30" width="2" height="7" fill="#13202b" opacity="1" /><rect x="10" y="14" width="4" height="1" fill="#73c5d5" opacity="1" /><rect x="7" y="18" width="10" height="2" fill="#18344a" opacity="0.45" /></g><g transform="translate(24 0)"><rect x="5" y="37" width="12" height="2" fill="#050813" opacity="0.18" /><rect x="9" y="3" width="6" height="2" fill="#15212d" opacity="1" /><rect x="8" y="5" width="8" height="2" fill="#20354a" opacity="1" /><rect x="9" y="7" width="6" height="5" fill="#d9b596" opacity="1" /><rect x="8" y="9" width="2" height="1" fill="#15212d" opacity="1" /><rect x="14" y="9" width="2" height="1" fill="#15212d" opacity="1" /><rect x="7" y="11" width="2" height="8" fill="#18344a" opacity="1" /><rect x="15" y="11" width="2" height="8" fill="#18344a" opacity="1" /><rect x="9" y="11" width="6" height="8" fill="#274c69" opacity="1" /><rect x="8" y="19" width="8" height="7" fill="#36708b" opacity="1" /><rect x="10" y="19" width="4" height="5" fill="#cbb97d" opacity="1" /><rect x="8" y="27" width="4" height="5" fill="#224d63" opacity="1" /><rect x="12" y="25" width="4" height="5" fill="#224d63" opacity="1" /><rect x="9" y="30" width="2" height="7" fill="#13202b" opacity="1" /><rect x="13" y="30" width="2" height="7" fill="#13202b" opacity="1" /><rect x="10" y="14" width="4" height="1" fill="#73c5d5" opacity="1" /><rect x="7" y="18" width="10" height="2" fill="#18344a" opacity="0.45" /></g><g transform="translate(48 0)"><rect x="5" y="37" width="12" height="2" fill="#050813" opacity="0.18" /><rect x="9" y="2" width="6" height="2" fill="#15212d" opacity="1" /><rect x="8" y="4" width="8" height="2" fill="#20354a" opacity="1" /><rect x="9" y="6" width="6" height="5" fill="#d9b596" opacity="1" /><rect x="8" y="8" width="2" height="1" fill="#15212d" opacity="1" /><rect x="14" y="8" width="2" height="1" fill="#15212d" opacity="1" /><rect x="9" y="11" width="2" height="8" fill="#18344a" opacity="1" /><rect x="13" y="11" width="2" height="8" fill="#18344a" opacity="1" /><rect x="9" y="11" width="6" height="8" fill="#274c69" opacity="1" /><rect x="8" y="19" width="8" height="7" fill="#36708b" opacity="1" /><rect x="10" y="19" width="4" height="5" fill="#cbb97d" opacity="1" /><rect x="8" y="27" width="4" height="5" fill="#224d63" opacity="1" /><rect x="12" y="25" width="4" height="5" fill="#224d63" opacity="1" /><rect x="7" y="30" width="2" height="7" fill="#13202b" opacity="1" /><rect x="15" y="30" width="2" height="7" fill="#13202b" opacity="1" /><rect x="10" y="14" width="4" height="1" fill="#73c5d5" opacity="1" /><rect x="7" y="18" width="10" height="2" fill="#18344a" opacity="0.45" /></g><g transform="translate(72 0)"><rect x="5" y="37" width="12" height="2" fill="#050813" opacity="0.18" /><rect x="9" y="2" width="6" height="2" fill="#15212d" opacity="1" /><rect x="8" y="4" width="8" height="2" fill="#20354a" opacity="1" /><rect x="9" y="6" width="6" height="5" fill="#d9b596" opacity="1" /><rect x="8" y="8" width="2" height="1" fill="#15212d" opacity="1" /><rect x="14" y="8" width="2" height="1" fill="#15212d" opacity="1" /><rect x="7" y="11" width="2" height="8" fill="#18344a" opacity="1" /><rect x="15" y="11" width="2" height="8" fill="#18344a" opacity="1" /><rect x="9" y="11" width="6" height="8" fill="#274c69" opacity="1" /><rect x="8" y="19" width="8" height="7" fill="#36708b" opacity="1" /><rect x="10" y="19" width="4" height="5" fill="#cbb97d" opacity="1" /><rect x="8" y="25" width="4" height="5" fill="#224d63" opacity="1" /><rect x="12" y="27" width="4" height="5" fill="#224d63" opacity="1" /><rect x="11" y="30" width="2" height="7" fill="#13202b" opacity="1" /><rect x="11" y="30" width="2" height="7" fill="#13202b" opacity="1" /><rect x="10" y="14" width="4" height="1" fill="#73c5d5" opacity="1" /><rect x="7" y="18" width="10" height="2" fill="#18344a" opacity="0.45" /></g><g transform="translate(96 0)"><circle cx="12" cy="20" r="12" fill="#f6dea4" opacity="0.3" /><rect x="5" y="37" width="12" height="2" fill="#050813" opacity="0.18" /><rect x="10" y="2" width="6" height="2" fill="#15212d" opacity="1" /><rect x="9" y="4" width="8" height="2" fill="#20354a" opacity="1" /><rect x="10" y="6" width="6" height="5" fill="#d9b596" opacity="1" /><rect x="9" y="8" width="2" height="1" fill="#15212d" opacity="1" /><rect x="15" y="8" width="2" height="1" fill="#15212d" opacity="1" /><rect x="7" y="11" width="2" height="8" fill="#18344a" opacity="1" /><rect x="18" y="11" width="2" height="8" fill="#18344a" opacity="1" /><rect x="10" y="11" width="6" height="8" fill="#274c69" opacity="1" /><rect x="9" y="19" width="8" height="7" fill="#36708b" opacity="1" /><rect x="11" y="19" width="4" height="5" fill="#cbb97d" opacity="1" /><rect x="9" y="26" width="4" height="5" fill="#224d63" opacity="1" /><rect x="13" y="26" width="4" height="5" fill="#224d63" opacity="1" /><rect x="10" y="30" width="2" height="7" fill="#13202b" opacity="1" /><rect x="14" y="30" width="2" height="7" fill="#13202b" opacity="1" /><rect x="11" y="14" width="4" height="1" fill="#73c5d5" opacity="1" /><rect x="8" y="18" width="10" height="2" fill="#18344a" opacity="0.45" /><rect x="19" y="15" width="2" height="6" fill="#c5a96e" opacity="1" /><rect x="21" y="13" width="5" height="2" fill="#f6e3a6" opacity="1" /><rect x="21" y="15" width="4" height="2" fill="#8af5ff" opacity="1" /><rect x="21" y="17" width="3" height="2" fill="#4cc0d4" opacity="1" /></g><g transform="translate(120 0)"><circle cx="12" cy="20" r="12" fill="#f6dea4" opacity="0.18" /><rect x="5" y="37" width="12" height="2" fill="#050813" opacity="0.18" /><rect x="12" y="2" width="6" height="2" fill="#15212d" opacity="1" /><rect x="11" y="4" width="8" height="2" fill="#20354a" opacity="1" /><rect x="12" y="6" width="6" height="5" fill="#d9b596" opacity="1" /><rect x="11" y="8" width="2" height="1" fill="#15212d" opacity="1" /><rect x="17" y="8" width="2" height="1" fill="#15212d" opacity="1" /><rect x="13" y="11" width="2" height="8" fill="#18344a" opacity="1" /><rect x="21" y="11" width="2" height="8" fill="#18344a" opacity="1" /><rect x="12" y="11" width="6" height="8" fill="#274c69" opacity="1" /><rect x="11" y="19" width="8" height="7" fill="#36708b" opacity="1" /><rect x="13" y="19" width="4" height="5" fill="#cbb97d" opacity="1" /><rect x="11" y="26" width="4" height="5" fill="#224d63" opacity="1" /><rect x="15" y="26" width="4" height="5" fill="#224d63" opacity="1" /><rect x="10" y="30" width="2" height="7" fill="#13202b" opacity="1" /><rect x="18" y="30" width="2" height="7" fill="#13202b" opacity="1" /><rect x="13" y="14" width="4" height="1" fill="#73c5d5" opacity="1" /><rect x="10" y="18" width="10" height="2" fill="#18344a" opacity="0.45" /><rect x="22" y="15" width="2" height="6" fill="#c5a96e" opacity="1" /><rect x="24" y="13" width="5" height="2" fill="#f6e3a6" opacity="1" /><rect x="24" y="15" width="4" height="2" fill="#8af5ff" opacity="1" /><rect x="24" y="17" width="3" height="2" fill="#4cc0d4" opacity="1" /></g><g transform="translate(144 0)"><circle cx="12" cy="20" r="14" fill="#8ae1ff" opacity="0.08" /><circle cx="12" cy="20" r="10" fill="#8ae1ff" opacity="0.16" /><rect x="5" y="37" width="12" height="2" fill="#050813" opacity="0.18" /><rect x="13" y="2" width="6" height="2" fill="#15212d" opacity="1" /><rect x="12" y="4" width="8" height="2" fill="#20354a" opacity="1" /><rect x="13" y="6" width="6" height="5" fill="#d9b596" opacity="1" /><rect x="12" y="8" width="2" height="1" fill="#15212d" opacity="1" /><rect x="18" y="8" width="2" height="1" fill="#15212d" opacity="1" /><rect x="14" y="11" width="2" height="8" fill="#18344a" opacity="1" /><rect x="22" y="11" width="2" height="8" fill="#18344a" opacity="1" /><rect x="13" y="11" width="6" height="8" fill="#274c69" opacity="1" /><rect x="12" y="19" width="8" height="7" fill="#36708b" opacity="1" /><rect x="14" y="19" width="4" height="5" fill="#cbb97d" opacity="1" /><rect x="12" y="26" width="4" height="5" fill="#224d63" opacity="1" /><rect x="16" y="26" width="4" height="5" fill="#224d63" opacity="1" /><rect x="15" y="30" width="2" height="7" fill="#13202b" opacity="1" /><rect x="14" y="30" width="2" height="7" fill="#13202b" opacity="1" /><rect x="14" y="14" width="4" height="1" fill="#73c5d5" opacity="1" /><rect x="11" y="18" width="10" height="2" fill="#18344a" opacity="0.45" /></g><g transform="translate(168 0)"><circle cx="12" cy="20" r="12" fill="#f6dea4" opacity="0.06" /><rect x="5" y="37" width="12" height="2" fill="#050813" opacity="0.18" /><rect x="9" y="3" width="6" height="2" fill="#15212d" opacity="1" /><rect x="8" y="5" width="8" height="2" fill="#20354a" opacity="1" /><rect x="9" y="7" width="6" height="5" fill="#d9b596" opacity="1" /><rect x="8" y="9" width="2" height="1" fill="#15212d" opacity="1" /><rect x="14" y="9" width="2" height="1" fill="#15212d" opacity="1" /><rect x="9" y="11" width="2" height="8" fill="#18344a" opacity="1" /><rect x="13" y="11" width="2" height="8" fill="#18344a" opacity="1" /><rect x="9" y="11" width="6" height="8" fill="#274c69" opacity="1" /><rect x="8" y="19" width="8" height="7" fill="#36708b" opacity="1" /><rect x="10" y="19" width="4" height="5" fill="#cbb97d" opacity="1" /><rect x="8" y="27" width="4" height="5" fill="#224d63" opacity="1" /><rect x="12" y="25" width="4" height="5" fill="#224d63" opacity="1" /><rect x="9" y="30" width="2" height="7" fill="#13202b" opacity="1" /><rect x="13" y="30" width="2" height="7" fill="#13202b" opacity="1" /><rect x="10" y="14" width="4" height="1" fill="#73c5d5" opacity="1" /><rect x="7" y="18" width="10" height="2" fill="#18344a" opacity="0.45" /></g>
</svg>
