<?xml version="1.0" encoding="UTF-8"?>
<svg xmlns="http://www.w3.org/2000/svg" width="96" height="16" viewBox="0 0 96 16" aria-label="Tower Tiles" shape-rendering="crispEdges">
  <g transform="translate(0 0)"><rect x="0" y="0" width="16" height="16" fill="#1e202e" opacity="1" /><rect x="0" y="11" width="16" height="5" fill="#43475f" opacity="1" /><rect x="0" y="12" width="16" height="4" fill="#646b82" opacity="1" /><rect x="4" y="8" width="2" height="3" fill="#8890aa" opacity="1" /><rect x="10" y="7" width="2" height="4" fill="#8890aa" opacity="1" /></g><g transform="translate(16 0)"><rect x="0" y="0" width="16" height="16" fill="#21263a" opacity="1" /><rect x="0" y="0" width="16" height="3" fill="#3a4562" opacity="1" /><rect x="0" y="3" width="16" height="13" fill="#2b3147" opacity="1" /><rect x="1" y="3" width="2" height="13" fill="#8488a3" opacity="1" /><rect x="7" y="3" width="2" height="13" fill="#8488a3" opacity="1" /><rect x="13" y="3" width="2" height="13" fill="#8488a3" opacity="1" /></g><g transform="translate(32 0)"><rect x="0" y="0" width="16" height="16" fill="#1c2031" opacity="1" /><rect x="2" y="2" width="12" height="12" fill="#39425e" opacity="1" /><rect x="3" y="3" width="10" height="10" fill="#59617b" opacity="1" /><rect x="6" y="0" width="4" height="16" fill="#d0ad63" opacity="1" /><rect x="0" y="6" width="16" height="4" fill="#d0ad63" opacity="1" /></g><g transform="translate(48 0)"><rect x="0" y="0" width="16" height="16" fill="#241c2d" opacity="1" /><rect x="6" y="1" width="4" height="11" fill="#69769d" opacity="1" /><rect x="5" y="12" width="6" height="2" fill="#9db7d0" opacity="1" /><rect x="4" y="14" width="8" height="2" fill="#526179" opacity="1" /><rect x="7" y="4" width="2" height="2" fill="#f8e7a8" opacity="0.8" /></g><g transform="translate(64 0)"><rect x="0" y="0" width="16" height="16" fill="#24263a" opacity="1" /><rect x="2" y="8" width="12" height="6" fill="#4e5571" opacity="1" /><rect x="1" y="6" width="14" height="2" fill="#6f7592" opacity="1" /><rect x="5" y="3" width="6" height="4" fill="#8ea0bf" opacity="1" /><rect x="7" y="1" width="2" height="2" fill="#edf2ff" opacity="0.78" /></g><g transform="translate(80 0)"><rect x="0" y="0" width="16" height="16" fill="#261d2b" opacity="1" /><rect x="0" y="8" width="16" height="8" fill="#3b3152" opacity="1" /><rect x="2" y="9" width="4" height="1" fill="#bca7de" opacity="0.48" /><rect x="9" y="11" width="5" height="1" fill="#e6d0ff" opacity="0.4" /><rect x="4" y="13" width="6" height="1" fill="#8f75cf" opacity="0.38" /></g>
</svg>
